<mxfile host="app.diagrams.net" modified="2024-01-07T07:44:04.215Z" agent="Mozilla/5.0 (Windows NT 10.0; Win64; x64) AppleWebKit/537.36 (KHTML, like Gecko) Chrome/120.0.0.0 Safari/537.36" etag="DvddrZbrGIp3LyY-mdtQ" version="22.1.17" type="github">
  <diagram name="Page-1" id="32EJsl6-6kcBErlpcQHA">
    <mxGraphModel dx="880" dy="460" grid="0" gridSize="10" guides="1" tooltips="1" connect="1" arrows="1" fold="1" page="1" pageScale="1" pageWidth="850" pageHeight="1100" background="none" math="0" shadow="1">
      <root>
        <mxCell id="0" />
        <mxCell id="1" parent="0" />
        <mxCell id="M-dSqJtkAvIOzfMbvp_s-4" value="" style="edgeStyle=orthogonalEdgeStyle;rounded=0;orthogonalLoop=1;jettySize=auto;html=1;" parent="1" source="M-dSqJtkAvIOzfMbvp_s-1" target="M-dSqJtkAvIOzfMbvp_s-2" edge="1">
          <mxGeometry relative="1" as="geometry" />
        </mxCell>
        <mxCell id="M-dSqJtkAvIOzfMbvp_s-1" value="Dataset&lt;br&gt;CT scan images" style="shape=cylinder3;whiteSpace=wrap;html=1;boundedLbl=1;backgroundOutline=1;size=15;" parent="1" vertex="1">
          <mxGeometry x="339" y="10" width="100" height="80" as="geometry" />
        </mxCell>
        <mxCell id="M-dSqJtkAvIOzfMbvp_s-6" value="" style="edgeStyle=orthogonalEdgeStyle;rounded=0;orthogonalLoop=1;jettySize=auto;html=1;" parent="1" source="M-dSqJtkAvIOzfMbvp_s-2" target="M-dSqJtkAvIOzfMbvp_s-5" edge="1">
          <mxGeometry relative="1" as="geometry" />
        </mxCell>
        <mxCell id="M-dSqJtkAvIOzfMbvp_s-2" value="pre-processing&lt;br&gt;(image resizing,noise reduction)" style="rounded=1;whiteSpace=wrap;html=1;" parent="1" vertex="1">
          <mxGeometry x="329" y="130" width="120" height="60" as="geometry" />
        </mxCell>
        <mxCell id="M-dSqJtkAvIOzfMbvp_s-8" value="" style="edgeStyle=orthogonalEdgeStyle;rounded=0;orthogonalLoop=1;jettySize=auto;html=1;" parent="1" source="M-dSqJtkAvIOzfMbvp_s-5" target="M-dSqJtkAvIOzfMbvp_s-7" edge="1">
          <mxGeometry relative="1" as="geometry" />
        </mxCell>
        <mxCell id="M-dSqJtkAvIOzfMbvp_s-5" value="Model Building&lt;br&gt;(FCN,LSTM)" style="rounded=0;whiteSpace=wrap;html=1;" parent="1" vertex="1">
          <mxGeometry x="329" y="220" width="120" height="60" as="geometry" />
        </mxCell>
        <mxCell id="4NK9KvIF4oWkT6LROsWA-1" value="" style="edgeStyle=orthogonalEdgeStyle;rounded=0;orthogonalLoop=1;jettySize=auto;html=1;" edge="1" parent="1" source="M-dSqJtkAvIOzfMbvp_s-7" target="M-dSqJtkAvIOzfMbvp_s-9">
          <mxGeometry relative="1" as="geometry" />
        </mxCell>
        <mxCell id="M-dSqJtkAvIOzfMbvp_s-7" value="Feature Extraction" style="rounded=0;whiteSpace=wrap;html=1;" parent="1" vertex="1">
          <mxGeometry x="329" y="300" width="120" height="60" as="geometry" />
        </mxCell>
        <mxCell id="M-dSqJtkAvIOzfMbvp_s-11" value="" style="edgeStyle=orthogonalEdgeStyle;rounded=0;orthogonalLoop=1;jettySize=auto;html=1;" parent="1" source="M-dSqJtkAvIOzfMbvp_s-9" target="M-dSqJtkAvIOzfMbvp_s-10" edge="1">
          <mxGeometry relative="1" as="geometry" />
        </mxCell>
        <mxCell id="M-dSqJtkAvIOzfMbvp_s-9" value="Classification of Disease&lt;br&gt;(CNN)" style="rounded=1;whiteSpace=wrap;html=1;" parent="1" vertex="1">
          <mxGeometry x="329" y="380" width="120" height="60" as="geometry" />
        </mxCell>
        <mxCell id="M-dSqJtkAvIOzfMbvp_s-10" value="predicted output" style="rounded=1;whiteSpace=wrap;html=1;" parent="1" vertex="1">
          <mxGeometry x="329" y="480" width="120" height="60" as="geometry" />
        </mxCell>
      </root>
    </mxGraphModel>
  </diagram>
</mxfile>
